<svg width="256" height="36" viewBox="0 0 256 36" fill="none" xmlns="http://www.w3.org/2000/svg">
<rect width="256" height="36" rx="12" fill="#FC004A"/>
<g clip-path="url(#clip0_1_941)">
<g clip-path="url(#clip1_1_941)">
<path fill-rule="evenodd" clip-rule="evenodd" d="M43.7229 17.0615C43.7313 14.5878 45.7434 12.5893 48.2171 12.5977C50.6908 12.6061 52.6893 14.6183 52.6809 17.0919V17.1427C52.6504 18.7507 51.7526 20.2369 50.6519 21.3985C50.0224 22.0521 49.3194 22.6309 48.557 23.1231C48.3531 23.2995 48.0507 23.2995 47.8468 23.1231C46.7102 22.3833 45.7126 21.4492 44.8997 20.3637C44.1752 19.4171 43.7638 18.2681 43.7229 17.0767V17.0615Z" stroke="white" stroke-width="1.05" stroke-linecap="round" stroke-linejoin="round"/>
<path d="M48.2018 18.5832C48.9946 18.5832 49.6373 17.9405 49.6373 17.1477C49.6373 16.3549 48.9946 15.7122 48.2018 15.7122C47.409 15.7122 46.7663 16.3549 46.7663 17.1477C46.7663 17.9405 47.409 18.5832 48.2018 18.5832Z" stroke="white" stroke-width="1.05" stroke-linecap="round" stroke-linejoin="round"/>
</g>
</g>
<path d="M69.4596 23.1467V21.9315H70.13C70.3884 21.9315 70.6049 21.8808 70.7795 21.7796C70.9576 21.6783 71.1043 21.5473 71.2195 21.3867C71.3382 21.2261 71.436 21.0585 71.5128 20.8839L71.6805 20.4858L67.972 12.2727H69.3758L72.33 18.9354L75.0327 12.2727H76.4155L72.7071 21.261C72.5604 21.5962 72.3928 21.907 72.2042 22.1934C72.0192 22.4797 71.766 22.7102 71.4447 22.8848C71.127 23.0594 70.6957 23.1467 70.151 23.1467H69.4596ZM77.34 23V14.9545H78.5762V18.4535H79.3933L82.2846 14.9545H83.877L80.6295 18.8306L83.9189 23H82.3265L79.6866 19.6058H78.5762V23H77.34ZM87.6299 23.1886C87.1201 23.1886 86.6574 23.0925 86.2419 22.9005C85.8263 22.7049 85.4964 22.4238 85.2519 22.0572C85.0075 21.687 84.8853 21.2401 84.8853 20.7163C84.8853 20.2553 84.9761 19.8817 85.1576 19.5953C85.3392 19.3055 85.5819 19.0785 85.8857 18.9144C86.1895 18.7503 86.5247 18.6281 86.8914 18.5478C87.2615 18.464 87.6334 18.3976 88.0071 18.3487C88.4959 18.2859 88.8923 18.2387 89.1961 18.2073C89.5034 18.1724 89.7269 18.1148 89.8665 18.0344C90.0097 17.9541 90.0813 17.8145 90.0813 17.6154V17.5735C90.0813 17.0567 89.9399 16.6551 89.657 16.3688C89.3777 16.0824 88.9534 15.9393 88.3842 15.9393C87.7941 15.9393 87.3314 16.0685 86.9962 16.3269C86.6609 16.5853 86.4252 16.8612 86.289 17.1545L85.1157 16.7354C85.3253 16.2466 85.6046 15.8659 85.9538 15.5936C86.3065 15.3177 86.6906 15.1257 87.1061 15.0174C87.5252 14.9057 87.9372 14.8498 88.3423 14.8498C88.6007 14.8498 88.8975 14.8812 89.2327 14.9441C89.5715 15.0034 89.898 15.1274 90.2122 15.316C90.53 15.5045 90.7936 15.7891 91.0032 16.1697C91.2127 16.5504 91.3174 17.0602 91.3174 17.6992V23H90.0813V21.9105H90.0184C89.9346 22.0851 89.7949 22.2719 89.5994 22.471C89.4039 22.67 89.1437 22.8394 88.8189 22.979C88.4942 23.1187 88.0979 23.1886 87.6299 23.1886ZM87.8185 22.0781C88.3074 22.0781 88.7194 21.9821 89.0547 21.79C89.3934 21.598 89.6483 21.3501 89.8194 21.0463C89.994 20.7425 90.0813 20.4229 90.0813 20.0877V18.9563C90.0289 19.0192 89.9137 19.0768 89.7356 19.1292C89.561 19.1781 89.3585 19.2217 89.128 19.2601C88.901 19.295 88.6793 19.3265 88.4628 19.3544C88.2498 19.3788 88.0769 19.3998 87.9442 19.4173C87.623 19.4592 87.3226 19.5273 87.0433 19.6215C86.7674 19.7123 86.5439 19.8503 86.3728 20.0353C86.2052 20.2169 86.1214 20.4648 86.1214 20.7791C86.1214 21.2086 86.2803 21.5334 86.5981 21.7534C86.9193 21.9699 87.3261 22.0781 87.8185 22.0781ZM93.0708 23L96.3393 18.9144L93.1127 14.9545H94.5794L97.2612 18.3906H97.9316V14.9545H99.1678V18.3906H99.8173L102.499 14.9545H103.966L100.76 18.9144L104.008 23H102.52L99.7963 19.543H99.1678V23H97.9316V19.543H97.3031L94.5584 23H93.0708ZM107.01 21.1772L110.886 14.9545H112.311V23H111.075V16.7773L107.22 23H105.774V14.9545H107.01V21.1772ZM113.48 16.1069V14.9545H120.017V16.1069H117.377V23H116.141V16.1069H113.48ZM124.776 23.1676C124.001 23.1676 123.332 22.9965 122.77 22.6543C122.211 22.3086 121.78 21.8267 121.476 21.2086C121.176 20.5871 121.026 19.8642 121.026 19.0401C121.026 18.216 121.176 17.4897 121.476 16.8612C121.78 16.2291 122.202 15.7367 122.744 15.3841C123.288 15.0279 123.924 14.8498 124.65 14.8498C125.069 14.8498 125.483 14.9196 125.892 15.0593C126.3 15.199 126.672 15.426 127.007 15.7402C127.343 16.051 127.61 16.4631 127.809 16.9764C128.008 17.4897 128.107 18.1217 128.107 18.8725V19.3963H121.906V18.3278H126.85C126.85 17.8738 126.759 17.4687 126.578 17.1126C126.4 16.7564 126.145 16.4753 125.813 16.2693C125.485 16.0632 125.097 15.9602 124.65 15.9602C124.158 15.9602 123.732 16.0824 123.372 16.3269C123.016 16.5678 122.742 16.8821 122.55 17.2697C122.358 17.6573 122.262 18.0729 122.262 18.5163V19.2287C122.262 19.8363 122.367 20.3514 122.576 20.7739C122.789 21.1929 123.084 21.5124 123.461 21.7324C123.838 21.9489 124.277 22.0572 124.776 22.0572C125.101 22.0572 125.394 22.0118 125.656 21.921C125.921 21.8267 126.15 21.687 126.342 21.502C126.534 21.3134 126.683 21.0794 126.787 20.8001L127.982 21.1353C127.856 21.5404 127.645 21.8965 127.348 22.2038C127.051 22.5076 126.684 22.7451 126.248 22.9162C125.811 23.0838 125.321 23.1676 124.776 23.1676ZM137.405 23.1676C136.65 23.1676 136.001 22.9895 135.456 22.6333C134.911 22.2772 134.492 21.7865 134.199 21.1615C133.906 20.5364 133.759 19.8223 133.759 19.0192C133.759 18.2021 133.909 17.481 134.21 16.8559C134.513 16.2274 134.936 15.7367 135.477 15.3841C136.022 15.0279 136.657 14.8498 137.384 14.8498C137.949 14.8498 138.459 14.9545 138.913 15.1641C139.367 15.3736 139.739 15.6669 140.029 16.044C140.319 16.4212 140.499 16.8612 140.568 17.364H139.332C139.238 16.9973 139.028 16.6726 138.704 16.3897C138.382 16.1034 137.949 15.9602 137.405 15.9602C136.923 15.9602 136.5 16.0859 136.137 16.3374C135.777 16.5853 135.496 16.9362 135.294 17.3902C135.095 17.8406 134.995 18.3697 134.995 18.9773C134.995 19.5988 135.093 20.1401 135.289 20.601C135.488 21.062 135.767 21.4199 136.127 21.6748C136.49 21.9297 136.916 22.0572 137.405 22.0572C137.726 22.0572 138.017 22.0013 138.279 21.8896C138.541 21.7778 138.763 21.6172 138.945 21.4077C139.126 21.1982 139.255 20.9467 139.332 20.6534H140.568C140.499 21.1283 140.326 21.5561 140.05 21.9367C139.777 22.3138 139.416 22.6141 138.966 22.8376C138.519 23.0576 137.998 23.1676 137.405 23.1676ZM142.375 23V14.9545H145.665C146.531 14.9545 147.219 15.1501 147.729 15.5412C148.238 15.9323 148.493 16.4491 148.493 17.0916C148.493 17.5805 148.348 17.9594 148.059 18.2282C147.769 18.4936 147.397 18.6735 146.943 18.7678C147.24 18.8097 147.528 18.9144 147.807 19.082C148.09 19.2496 148.324 19.4801 148.509 19.7734C148.694 20.0633 148.787 20.4194 148.787 20.842C148.787 21.254 148.682 21.6224 148.472 21.9472C148.263 22.2719 147.963 22.5286 147.571 22.7172C147.18 22.9057 146.712 23 146.168 23H142.375ZM143.549 21.8686H146.168C146.594 21.8686 146.927 21.7673 147.168 21.5648C147.409 21.3623 147.53 21.0864 147.53 20.7372C147.53 20.3217 147.409 19.9952 147.168 19.7577C146.927 19.5168 146.594 19.3963 146.168 19.3963H143.549V21.8686ZM143.549 18.3278H145.665C145.997 18.3278 146.281 18.2824 146.519 18.1916C146.756 18.0973 146.938 17.9646 147.063 17.7935C147.193 17.6189 147.257 17.4129 147.257 17.1754C147.257 16.8367 147.116 16.5713 146.833 16.3793C146.55 16.1837 146.161 16.0859 145.665 16.0859H143.549V18.3278ZM153.926 23.1676C153.2 23.1676 152.563 22.9948 152.015 22.6491C151.47 22.3034 151.044 21.8197 150.736 21.1982C150.433 20.5766 150.281 19.8503 150.281 19.0192C150.281 18.1811 150.433 17.4495 150.736 16.8245C151.044 16.1994 151.47 15.714 152.015 15.3683C152.563 15.0226 153.2 14.8498 153.926 14.8498C154.653 14.8498 155.288 15.0226 155.833 15.3683C156.381 15.714 156.807 16.1994 157.111 16.8245C157.418 17.4495 157.572 18.1811 157.572 19.0192C157.572 19.8503 157.418 20.5766 157.111 21.1982C156.807 21.8197 156.381 22.3034 155.833 22.6491C155.288 22.9948 154.653 23.1676 153.926 23.1676ZM153.926 22.0572C154.478 22.0572 154.932 21.9157 155.288 21.6329C155.644 21.3501 155.908 20.9782 156.079 20.5172C156.25 20.0563 156.336 19.5569 156.336 19.0192C156.336 18.4814 156.25 17.9803 156.079 17.5159C155.908 17.0515 155.644 16.6761 155.288 16.3897C154.932 16.1034 154.478 15.9602 153.926 15.9602C153.375 15.9602 152.921 16.1034 152.565 16.3897C152.208 16.6761 151.945 17.0515 151.774 17.5159C151.602 17.9803 151.517 18.4814 151.517 19.0192C151.517 19.5569 151.602 20.0563 151.774 20.5172C151.945 20.9782 152.208 21.3501 152.565 21.6329C152.921 21.9157 153.375 22.0572 153.926 22.0572ZM160.695 21.1772L164.571 14.9545H165.996V23H164.76V16.7773L160.905 23H159.459V14.9545H160.695V21.1772ZM163.754 12.2727H164.906C164.906 12.8384 164.711 13.3011 164.32 13.6608C163.929 14.0204 163.398 14.2003 162.727 14.2003C162.067 14.2003 161.542 14.0204 161.151 13.6608C160.763 13.3011 160.569 12.8384 160.569 12.2727H161.722C161.722 12.5451 161.797 12.7843 161.947 12.9903C162.101 13.1963 162.361 13.2994 162.727 13.2994C163.094 13.2994 163.356 13.1963 163.513 12.9903C163.674 12.7843 163.754 12.5451 163.754 12.2727ZM174.776 23.1886C174.266 23.1886 173.803 23.0925 173.388 22.9005C172.972 22.7049 172.642 22.4238 172.398 22.0572C172.153 21.687 172.031 21.2401 172.031 20.7163C172.031 20.2553 172.122 19.8817 172.304 19.5953C172.485 19.3055 172.728 19.0785 173.032 18.9144C173.336 18.7503 173.671 18.6281 174.037 18.5478C174.408 18.464 174.779 18.3976 175.153 18.3487C175.642 18.2859 176.038 18.2387 176.342 18.2073C176.649 18.1724 176.873 18.1148 177.013 18.0344C177.156 17.9541 177.227 17.8145 177.227 17.6154V17.5735C177.227 17.0567 177.086 16.6551 176.803 16.3688C176.524 16.0824 176.099 15.9393 175.53 15.9393C174.94 15.9393 174.477 16.0685 174.142 16.3269C173.807 16.5853 173.571 16.8612 173.435 17.1545L172.262 16.7354C172.471 16.2466 172.751 15.8659 173.1 15.5936C173.452 15.3177 173.837 15.1257 174.252 15.0174C174.671 14.9057 175.083 14.8498 175.488 14.8498C175.747 14.8498 176.044 14.8812 176.379 14.9441C176.717 15.0034 177.044 15.1274 177.358 15.316C177.676 15.5045 177.94 15.7891 178.149 16.1697C178.359 16.5504 178.463 17.0602 178.463 17.6992V23H177.227V21.9105H177.164C177.081 22.0851 176.941 22.2719 176.745 22.471C176.55 22.67 176.29 22.8394 175.965 22.979C175.64 23.1187 175.244 23.1886 174.776 23.1886ZM174.965 22.0781C175.453 22.0781 175.865 21.9821 176.201 21.79C176.539 21.598 176.794 21.3501 176.965 21.0463C177.14 20.7425 177.227 20.4229 177.227 20.0877V18.9563C177.175 19.0192 177.06 19.0768 176.882 19.1292C176.707 19.1781 176.504 19.2217 176.274 19.2601C176.047 19.295 175.825 19.3265 175.609 19.3544C175.396 19.3788 175.223 19.3998 175.09 19.4173C174.769 19.4592 174.469 19.5273 174.189 19.6215C173.913 19.7123 173.69 19.8503 173.519 20.0353C173.351 20.2169 173.267 20.4648 173.267 20.7791C173.267 21.2086 173.426 21.5334 173.744 21.7534C174.065 21.9699 174.472 22.0781 174.965 22.0781ZM179.861 25.3047V21.8477H180.531C180.695 21.6766 180.837 21.4915 180.955 21.2924C181.074 21.0934 181.177 20.8577 181.264 20.5853C181.355 20.3095 181.432 19.9742 181.495 19.5796C181.558 19.1816 181.614 18.7014 181.662 18.1392L181.935 14.9545H187.047V21.8477H188.283V25.3047H187.047V23H181.097V25.3047H179.861ZM181.935 21.8477H185.811V16.1069H183.087L182.878 18.1392C182.79 18.9808 182.682 19.7158 182.553 20.3444C182.424 20.9729 182.218 21.474 181.935 21.8477ZM189.924 26.017V14.9545H191.118V16.2326H191.265C191.356 16.0929 191.481 15.9148 191.642 15.6983C191.806 15.4783 192.04 15.2828 192.344 15.1117C192.651 14.9371 193.067 14.8498 193.591 14.8498C194.268 14.8498 194.865 15.0191 195.382 15.3579C195.899 15.6966 196.302 16.1767 196.592 16.7983C196.882 17.4199 197.027 18.1532 197.027 18.9982C197.027 19.8503 196.882 20.5888 196.592 21.2139C196.302 21.8354 195.9 22.3173 195.387 22.6595C194.874 22.9983 194.282 23.1676 193.612 23.1676C193.095 23.1676 192.681 23.0821 192.37 22.911C192.059 22.7364 191.82 22.5391 191.653 22.3191C191.485 22.0956 191.356 21.9105 191.265 21.7638H191.16V26.017H189.924ZM191.139 18.9773C191.139 19.5849 191.228 20.1209 191.406 20.5853C191.584 21.0463 191.845 21.4077 192.187 21.6696C192.529 21.928 192.948 22.0572 193.444 22.0572C193.961 22.0572 194.392 21.921 194.738 21.6486C195.087 21.3728 195.349 21.0026 195.523 20.5382C195.701 20.0703 195.79 19.55 195.79 18.9773C195.79 18.4116 195.703 17.9018 195.529 17.4478C195.357 16.9904 195.097 16.6289 194.748 16.3635C194.402 16.0947 193.968 15.9602 193.444 15.9602C192.941 15.9602 192.519 16.0877 192.176 16.3426C191.834 16.594 191.576 16.9467 191.401 17.4007C191.227 17.8511 191.139 18.3767 191.139 18.9773ZM202.286 23.1676C201.51 23.1676 200.842 22.9965 200.279 22.6543C199.721 22.3086 199.289 21.8267 198.986 21.2086C198.685 20.5871 198.535 19.8642 198.535 19.0401C198.535 18.216 198.685 17.4897 198.986 16.8612C199.289 16.2291 199.712 15.7367 200.253 15.3841C200.798 15.0279 201.433 14.8498 202.16 14.8498C202.579 14.8498 202.993 14.9196 203.401 15.0593C203.81 15.199 204.182 15.426 204.517 15.7402C204.852 16.051 205.119 16.4631 205.318 16.9764C205.517 17.4897 205.617 18.1217 205.617 18.8725V19.3963H199.415V18.3278H204.36C204.36 17.8738 204.269 17.4687 204.087 17.1126C203.909 16.7564 203.654 16.4753 203.323 16.2693C202.994 16.0632 202.607 15.9602 202.16 15.9602C201.667 15.9602 201.241 16.0824 200.882 16.3269C200.526 16.5678 200.251 16.8821 200.059 17.2697C199.867 17.6573 199.771 18.0729 199.771 18.5163V19.2287C199.771 19.8363 199.876 20.3514 200.086 20.7739C200.299 21.1929 200.594 21.5124 200.971 21.7324C201.348 21.9489 201.786 22.0572 202.286 22.0572C202.61 22.0572 202.904 22.0118 203.166 21.921C203.431 21.8267 203.66 21.687 203.852 21.502C204.044 21.3134 204.192 21.0794 204.297 20.8001L205.491 21.1353C205.365 21.5404 205.154 21.8965 204.857 22.2038C204.561 22.5076 204.194 22.7451 203.757 22.9162C203.321 23.0838 202.83 23.1676 202.286 23.1676ZM210.766 23.1676C210.011 23.1676 209.362 22.9895 208.817 22.6333C208.272 22.2772 207.853 21.7865 207.56 21.1615C207.267 20.5364 207.12 19.8223 207.12 19.0192C207.12 18.2021 207.27 17.481 207.571 16.8559C207.874 16.2274 208.297 15.7367 208.838 15.3841C209.383 15.0279 210.018 14.8498 210.745 14.8498C211.31 14.8498 211.82 14.9545 212.274 15.1641C212.728 15.3736 213.1 15.6669 213.39 16.044C213.68 16.4212 213.86 16.8612 213.929 17.364H212.693C212.599 16.9973 212.389 16.6726 212.065 16.3897C211.743 16.1034 211.31 15.9602 210.766 15.9602C210.284 15.9602 209.861 16.0859 209.498 16.3374C209.138 16.5853 208.857 16.9362 208.655 17.3902C208.456 17.8406 208.356 18.3697 208.356 18.9773C208.356 19.5988 208.454 20.1401 208.65 20.601C208.849 21.062 209.128 21.4199 209.488 21.6748C209.851 21.9297 210.277 22.0572 210.766 22.0572C211.087 22.0572 211.379 22.0013 211.64 21.8896C211.902 21.7778 212.124 21.6172 212.306 21.4077C212.487 21.1982 212.616 20.9467 212.693 20.6534H213.929C213.86 21.1283 213.687 21.5561 213.411 21.9367C213.139 22.3138 212.777 22.6141 212.327 22.8376C211.88 23.0576 211.359 23.1676 210.766 23.1676Z" fill="white"/>
<defs>
<clipPath id="clip0_1_941">
<rect width="14" height="14" fill="white" transform="translate(41.25 11)"/>
</clipPath>
<clipPath id="clip1_1_941">
<rect width="14" height="14" fill="white" transform="translate(41.25 11)"/>
</clipPath>
</defs>
</svg>
